<?xml version="1.0" encoding="UTF-8"?>
<svg width="73px" height="17px" viewBox="0 0 73 17" version="1.1" xmlns="http://www.w3.org/2000/svg" xmlns:xlink="http://www.w3.org/1999/xlink">
    <!-- Generator: Sketch 63.1 (92452) - https://sketch.com -->
    <title>Artboard</title>
    <desc>Created with Sketch.</desc>
    <defs>
        <rect id="path-1" x="0" y="0.437437453" width="75.1470588" height="17.7132353"></rect>
    </defs>
    <g id="Artboard" stroke="none" stroke-width="1" fill="none" fill-rule="evenodd">
        <g id="Group-2-Copy">
            <g id="logo-menu" transform="translate(0.000000, 0.323529)">
                <g id="Mesa-de-trabajo-–-4-(1)" transform="translate(-1.073529, -1.073529)">
                    <mask id="mask-2" fill="white">
                        <use xlink:href="#path-1"></use>
                    </mask>
                    <g id="Rectangle"></g>
                    <g id="Mesa_de_trabajo_4" mask="url(#mask-2)">
                        <g transform="translate(0.000000, 0.437437)">
                            <rect id="Rectangle" fill="#FFFFFF" fill-rule="nonzero" x="0" y="0" width="75.1470588" height="17.7132353"></rect>
                            <g id="Group_2169" stroke-width="1" fill="none" fill-rule="evenodd" transform="translate(1.460688, 1.167005)">
                                <path d="M7.67030195,9.95642924 C7.70457917,9.94879083 7.74054948,9.95493823 7.77016751,9.97349648 C7.79978554,9.99205473 7.82057997,10.0214753 7.82789978,10.0551779 C8.04338627,11.1162219 8.26103682,12.1606133 8.45407117,13.2091414 C8.47143777,13.3034882 8.47744304,13.4424894 8.23355323,13.5296767 C7.30212597,13.8671001 6.31101895,14.0175838 5.31910251,13.9721894 C4.75302721,13.9588551 4.1903009,13.882871 3.64162972,13.7456827 C2.15145651,13.3333462 1.2323793,12.1999113 1.1209301,10.6146297 C1.04686507,9.55772235 1.07386175,8.49376149 1.05654925,7.43287659 C1.05411468,7.28120038 1.05654925,7.12936507 1.05654925,6.92698871 L0.24681129,6.92698871 C0.109818952,6.92538894 -0.000282096948,6.81589942 5.33336553e-05,6.68160206 C0.00140664041,5.76072596 0.0095759751,4.98150271 0.0095759751,4.07966568 C0.0095759751,3.82080849 0.106958773,3.75960767 0.228092153,3.71760503 C2.03091824,3.07849665 3.06339231,1.76925522 3.61187386,-5.30336386e-05 L5.1934787,-5.30336386e-05 C5.30176187,-5.30336386e-05 5.38954273,0.0859951092 5.38954273,0.192140873 L5.38954273,3.02885717 L7.88037829,3.02885717 C7.97691883,3.02885717 8.05518041,3.10557393 8.05518041,3.20020885 L8.05518041,6.70392922 C8.05518041,6.81815893 7.96071425,6.91076041 7.84418435,6.91076041 L5.4858976,6.91076041 C5.4858976,7.76232155 5.44169663,8.56137938 5.50310189,9.35242913 C5.53734818,9.79594945 5.92146921,10.0423968 6.40540761,10.07899 C6.64231849,10.0962965 6.88035599,10.0920356 7.11646434,10.0662619 C7.30312439,10.0404884 7.48804797,10.0038122 7.67024785,9.95642924 L7.67030195,9.95642924 Z" id="Trazado_1543" fill="#E20000" fill-rule="nonzero"></path>
                                <g id="Grupo_2075" transform="translate(48.530771, 0.506683)" fill-rule="nonzero">
                                    <path d="M11.9779218,13.1267269 C11.9779218,13.1267269 10.5949779,13.1246588 10.6118576,13.5607544 C10.6245173,13.88479 11.2974866,13.7755407 11.2974866,14.0338145 C11.2974866,14.2920883 9.90805044,14.3920567 10.3402678,14.7716715 C10.6581685,15.0511057 12.5199653,14.4474769 12.5996028,14.1349496 C12.6792402,13.8224224 11.4710443,13.799671 11.7236986,13.6006888 C11.973756,13.4036158 12.7040188,13.3209893 12.7040188,13.3209893 L11.9779218,13.1267269 Z" id="Trazado_1544" fill="#FFA0BA"></path>
                                    <path d="M2.98624349,11.6900459 L0.98405317,10.4452403 L0.143856033,11.7445644 C-0.0921890484,12.1008444 -0.0190437471,12.4207433 0.227388832,12.5739045 L1.33695761,13.2633418 C1.58339019,13.416662 1.91005537,13.3449605 2.14593815,12.9885215 L2.98624349,11.6900459 Z" id="Trazado_1545" fill="#FFA0BA"></path>
                                    <polygon id="Trazado_1546" fill="#FF0AAA" points="2.9031435 11.8097958 0.901061386 10.5655736 6.25240842 2.19018321 8.25449053 3.43435237"></polygon>
                                    <polygon id="Rectángulo_857" fill="#FFB500" transform="translate(4.055568, 6.687069) rotate(-57.994617) translate(-4.055568, -6.687069) " points="-0.626914653 6.50193678 8.73550017 6.58619142 8.73805165 6.87220118 -0.624363169 6.78794654"></polygon>
                                    <polygon id="Rectángulo_858" fill="#FFB500" transform="translate(5.059744, 7.286441) rotate(-57.454000) translate(-5.059744, -7.286441) " points="0.378620318 7.10097277 9.73829284 7.18594807 9.74086734 7.47190889 0.381194813 7.38693359"></polygon>
                                    <polygon id="Trazado_1547" fill="#BABCBE" points="3.1224171 11.4718124 1.12038909 10.2276433 0.637803223 10.9816225 2.63983124 12.2258447"></polygon>
                                    <path d="M7.75859569,1.05536941 L6.25284123,2.19018321 L6.48547791,2.89728071 L7.25885963,2.81523767 L7.49425549,3.52482776 L8.25497745,3.43467057 L8.60452759,1.59795656 C8.27602104,1.49939641 7.9828294,1.31139827 7.7590826,1.05584671 L7.75859569,1.05536941 Z" id="Trazado_1548" fill="#FFB500"></path>
                                    <path d="M7.75859569,1.05574064 C7.98234728,1.31131161 8.27556228,1.49931269 8.60409478,1.5978505 L8.77678694,0.689967638 C8.79099875,0.615608814 8.75691892,0.540366854 8.69112014,0.500831194 C8.62532135,0.461295533 8.54145737,0.465670124 8.48031042,0.511827646 L7.75859569,1.05574064 Z" id="Trazado_1549" fill="#FF6F21"></path>
                                    <path d="M9.90561587,10.845273 L10.9682786,10.3118607 C11.6744121,10.5988257 12.0982978,11.3479259 12.0280739,12.1527113 C12.0132925,12.312713 12.0333941,12.4739668 12.0870446,12.6257714 C11.9701192,12.4060787 11.880309,12.1735139 11.8195125,11.932993 C11.6736642,12.1571552 11.6621312,12.4409028 11.7893238,12.6757291 C11.513116,12.5513378 11.2925243,12.3326687 11.1687249,12.0605389 C11.1687249,12.0605389 11.0782671,12.481732 11.2376502,12.7649847 C11.0887747,12.7771357 10.9414872,12.727785 10.8313476,12.6288473 C10.9822713,12.9445261 11.2264999,13.2084529 11.5323414,13.3863798 C9.8267358,13.0840881 9.90561587,10.845273 9.90561587,10.845273 Z" id="Trazado_1550" fill="#FF6F21"></path>
                                    <path d="M10.8308065,12.62837 C10.9409372,12.7273269 11.0882258,12.7766972 11.2371092,12.7645604 C11.0770768,12.4813077 11.1681838,12.0601146 11.1681838,12.0601146 C11.2919874,12.3322416 11.5125778,12.5509095 11.7887828,12.6753048 C11.6615854,12.4404854 11.6730975,12.1567441 11.8189173,11.9325687 C11.879742,12.1731038 11.9696078,12.4056716 12.0866118,12.6253471 C12.2017844,12.9214282 12.420316,13.1678916 12.7033695,13.3209363 C12.3215126,13.422515 11.9221948,13.4446267 11.5310971,13.3858495 C11.2254934,13.2078115 10.9814859,12.9438996 10.8306983,12.628317 L10.8308065,12.62837 Z" id="Trazado_1551" fill="#FFB500"></path>
                                    <polygon id="Trazado_1552" fill="#BABCBE" points="10.7530085 8.98119366 11.3914069 10.1100677 9.2347566 11.2167737 8.66014399 10.0320022"></polygon>
                                    <polygon id="Trazado_1553" fill="#BABCBE" points="8.55864947 9.82342088 8.37767977 9.4504353 10.435216 8.41940833 10.6386378 8.77924157"></polygon>
                                    <path d="M8.39482997,9.46639842 L4.38882628,1.24835882 C4.1922077,0.838323788 4.36255445,0.349312442 4.77394731,0.142798784 C5.18534018,-0.0637148745 5.68968152,0.0866121698 5.9141655,0.482659145 L10.4376506,8.44115212 L8.39482997,9.46639842 Z" id="Trazado_1554" fill="#FF0AAA"></path>
                                    <path d="M12.4445477,8.70255493 C12.4445477,8.70255493 12.1184776,9.64162157 11.1808977,9.64162157 C10.2433178,9.64162157 8.69444437,7.58391639 7.69572968,7.58391639 C7.32788474,7.59279298 6.97061794,7.70637413 6.66747554,7.91081574 C6.47263305,8.03488691 6.22153923,8.03488691 6.02669673,7.91081574 C5.72354555,7.70639848 5.36628094,7.59283645 4.9984426,7.58396942 C3.99978201,7.58396942 2.45090861,9.6416746 1.51332867,9.6416746 C0.57574874,9.6416746 0.249678673,8.70260796 0.249678673,8.70260796 C0.0682197544,9.41977318 0.312258755,10.1761175 0.881422521,10.6605569 C1.90935205,11.5840846 5.16155878,11.3997397 6.34362364,10.0612767 L6.34724844,10.0464804 L6.35071094,10.0612767 C7.53293811,11.3999519 10.7846579,11.5839786 11.812858,10.6605569 C12.3820217,10.1761175 12.6260607,9.41977318 12.4446018,8.70260796 L12.4445477,8.70255493 Z" id="Trazado_1555" fill="#6F5DB8"></path>
                                    <polygon id="Trazado_1556" fill="#6F5DB8" opacity="0.5" points="6.25013615 6.57129209 6.66352613 5.9242817 5.45597944 3.43700405 5.04242716 4.08401444"></polygon>
                                </g>
                                <g id="Grupo_2076" transform="translate(10.373486, 1.118161)" fill="#6F5DB8" fill-rule="nonzero">
                                    <path d="M2.70166931,3.7523951 C3.3335941,3.76426975 3.93388267,3.48192298 4.31983627,2.99128746 C4.70578986,2.50065194 4.83175283,1.85976647 4.65938815,1.26368554 C4.44552471,0.550489169 3.91121776,0.192777276 3.21839326,0.0416844399 C2.02875418,-0.217597019 0.398187439,0.751327558 0.83646413,2.46160937 C1.0304723,3.21924793 1.78978762,3.7523951 2.70166931,3.7523951 Z" id="Trazado_1557"></path>
                                    <path d="M5.65036632,9.50394624 C5.60672159,9.50295776 5.56609932,9.5257152 5.54481419,9.56307875 C5.17292011,10.2106195 4.81850083,10.5426631 4.46316182,10.6369569 C4.18448471,10.7108858 3.91089315,10.6311762 3.93529295,10.1847391 L4.33239836,5.00674672 C4.33230887,4.9057923 4.2488435,4.82397446 4.1458562,4.82388673 L0.704618642,4.82388673 C0.601631343,4.82397446 0.518165973,4.9057923 0.518076483,5.00674672 L0.00952187354,10.0612767 C0.00411171812,10.1238034 0.000162304663,10.1866483 0.000162304663,10.2502356 C0.00423411939,11.6908024 1.19454797,12.8576205 2.66412283,12.861612 C4.41539015,12.861612 5.91324578,11.1181841 6.19316722,9.65944087 C6.19872624,9.62730207 6.19000045,9.59436695 6.16919036,9.56894128 C6.14838028,9.54351561 6.11747223,9.52802627 6.08426079,9.52637947 C5.95279401,9.51842442 5.75597256,9.50765859 5.65036632,9.50394624 Z" id="Trazado_1558"></path>
                                </g>
                                <path d="M28.0503574,5.52812042 C28.0863449,5.61000902 28.0518915,5.70524942 27.9713151,5.74661901 C27.7451165,5.86239145 27.540288,5.96734502 27.3345939,6.0694878 C26.5040809,6.48341535 25.6717285,6.89320628 24.8425681,7.30925517 C24.7317988,7.39540543 24.5709055,7.37798908 24.4819812,7.27022242 C24.074707,6.85425672 23.4519617,6.71965865 22.9040012,6.92916309 C22.3494899,7.10656451 21.9369999,7.5651598 21.8268933,8.12666265 C21.6551209,8.8658455 21.9302273,9.45717057 22.4652917,9.95070161 C22.9423051,10.3901914 23.745118,10.4386111 24.4409722,10.0985064 C25.0027628,9.82368605 25.2633159,9.31408581 25.2161393,8.6118674 C25.219441,8.53080418 25.2620906,8.45617703 25.3308887,8.41108205 C26.3413434,7.96342511 27.3564509,7.52690523 28.3693402,7.08455165 C28.5532855,7.00425872 28.6334099,7.11409138 28.6860507,7.24715278 C28.8505178,7.63418874 28.9393776,8.04805816 28.9480925,8.46724467 C28.9600751,10.9141107 27.6409169,12.5428268 25.4663049,13.5068722 C22.9889401,14.6425176 20.0386309,13.6639751 18.7736721,11.2870963 C17.8485356,9.54038035 17.9280648,7.77096603 18.8440042,6.04424379 C19.4904853,4.78367942 20.6102752,3.81784328 21.9680443,3.34971068 C22.9857486,2.98955924 24.032235,3.00896955 25.0794788,3.24783306 C26.260667,3.49452925 27.2836609,4.21234747 27.9027143,5.2288516 C27.9590884,5.32504043 28.0084268,5.42503026 28.0503574,5.52806739 L28.0503574,5.52812042 Z" id="Trazado_1559" fill="#81D8C5" fill-rule="nonzero"></path>
                                <ellipse id="Elipse_413" fill="#008659" fill-rule="nonzero" cx="18.814086" cy="3.20132256" rx="1" ry="1"></ellipse>
                                <ellipse id="Elipse_414" fill="#008659" fill-rule="nonzero" cx="17.9921752" cy="12.0818584" rx="1" ry="1"></ellipse>
                                <ellipse id="Elipse_415" fill="#008659" fill-rule="nonzero" cx="29.6757304" cy="10.7859284" rx="1" ry="1"></ellipse>
                                <path d="M25.9887095,6.77069857 C26.1798683,7.13652461 26.3579346,7.50903289 26.5229082,7.88822341 C26.5832315,7.86170659 26.6444744,7.83471246 26.7053928,7.80840778 C26.5409962,7.42561098 26.3638857,7.04871858 26.1740614,6.6777306 C26.1695169,6.66929826 26.1647019,6.66118411 26.1601573,6.65275176 L25.9748595,6.74487119 C25.979404,6.75351567 25.9842191,6.76178892 25.9887095,6.77069857 Z" id="Trazado_1560" fill="#008659" fill-rule="nonzero"></path>
                                <path d="M18.9964082,5.52695368 C18.8511874,4.83018348 18.8087358,4.11658857 18.8703516,3.40799465 C18.9017648,3.05746479 18.9914592,2.7143323 19.135882,2.39218834 C19.3993099,1.71522426 20.1424895,1.34336345 20.8563115,1.53134631 C21.2070017,1.60553662 21.5429766,1.73537498 21.8509685,1.91573413 C22.4004724,2.23689895 22.9040639,2.62813182 23.3485537,3.07918609 C23.4239712,3.07531464 23.4993888,3.07356453 23.5747523,3.07282205 C23.0877597,2.57203017 22.531884,2.14027732 21.9231941,1.7900444 C21.6001394,1.60482172 21.24831,1.47273328 20.8816851,1.39902739 C20.1082562,1.21273811 19.3127108,1.61191257 19.0145864,2.33586661 C18.8613401,2.6703279 18.7650437,3.02714644 18.7295253,3.39213759 C18.6612824,4.11442305 18.6992712,4.84257344 18.842327,5.554266 C18.8643463,5.67385686 18.8910184,5.79244008 18.9165002,5.91128846 C18.9550927,5.84230937 18.9947671,5.77470916 19.0355237,5.70848783 C19.0232426,5.64802948 19.0082024,5.5878363 18.9964082,5.52695368 Z" id="Trazado_1561" fill="#008659" fill-rule="nonzero"></path>
                                <path d="M27.5970405,12.057622 C27.6090449,12.3387353 27.600638,12.6203295 27.5718833,12.9002735 C27.5407176,13.2497936 27.4514248,13.5919607 27.3075431,13.913216 C27.0457562,14.5863921 26.3074811,14.9569198 25.5972848,14.7715654 C25.2470404,14.6980616 24.9113943,14.5689755 24.6036015,14.389405 C24.362698,14.2530482 24.1317097,14.1005127 23.9122919,13.9328915 C23.8354676,13.9420486 23.7586434,13.949544 23.6818192,13.9553777 C23.9472607,14.1665655 24.2297099,14.3563388 24.5263986,14.5228377 C24.8495948,14.7090185 25.2017403,14.8420047 25.5688273,14.9165064 C26.3458493,15.1052629 27.1461295,14.7047569 27.4458808,13.9771215 C27.5997618,13.6417368 27.696621,13.2839291 27.732619,12.9178807 C27.7704581,12.5731803 27.7789814,12.2259918 27.7581008,11.8799063 C27.7064519,11.9403293 27.6527651,11.9995678 27.5970405,12.057622 Z" id="Trazado_1562" fill="#008659" fill-rule="nonzero"></path>
                                <path d="M22.9266156,13.050783 C21.9368054,12.0029725 21.105123,10.8216497 20.4568797,9.54276686 C19.8088905,8.33334818 19.3308397,7.04353435 19.0357401,5.70843479 C18.9950196,5.77486826 18.9553451,5.84246847 18.9167166,5.91123543 C19.2093782,7.20242742 19.6697502,8.45149849 20.286568,9.62788585 C20.9494981,10.9186376 21.7976432,12.1096378 22.8051576,13.1645931 C23.0804722,13.445828 23.3734825,13.7098865 23.6824684,13.9552186 C23.7592927,13.949491 23.8360988,13.9419956 23.912887,13.9327324 C23.5622979,13.6631028 23.2326331,13.368308 22.9266156,13.050783 Z" id="Trazado_1563" fill="#008659" fill-rule="nonzero"></path>
                                <path d="M20.6844849,14.0223592 C20.3429521,14.1353205 19.9848685,14.1927542 19.6244191,14.1923851 C18.884895,14.2259642 18.2377072,13.7094876 18.1212615,12.9928172 C18.0482094,12.6473962 18.0331879,12.2925998 18.07679,11.9424329 C18.13529,11.445331 18.2508989,10.9562998 18.4214169,10.4846443 C18.3959351,10.4133671 18.3706156,10.342249 18.3484339,10.2708657 C18.1446173,10.8053588 18.0083489,11.3623101 17.9426723,11.9292806 C17.8989016,12.2937508 17.9162262,12.6627846 17.9939605,13.0217736 C18.1267,13.7936443 18.824939,14.3478753 19.6227419,14.3146276 C19.9966035,14.3146198 20.367949,14.254697 20.7220855,14.1372301 C21.0633683,14.0280746 21.3946815,13.8909768 21.7125227,13.7273861 C21.6589261,13.7103446 21.6055819,13.6924546 21.5524903,13.6737161 C21.2726097,13.8113755 20.9824345,13.9279273 20.6844849,14.0223592 L20.6844849,14.0223592 Z" id="Trazado_1564" fill="#008659" fill-rule="nonzero"></path>
                                <path d="M26.0339925,2.34917806 C26.3740314,2.23618669 26.7306319,2.17846685 27.0896761,2.17830367 C27.8236882,2.14471387 28.4669625,2.6554499 28.5859087,3.36625718 C28.6605112,3.71087408 28.6770688,4.06513726 28.6349247,4.41499738 C28.5478308,5.12282644 28.3577722,5.81478045 28.0705373,6.46978571 C27.9367442,6.78798754 27.7882354,7.10014354 27.628203,7.40678403 L27.8070627,7.32887762 C27.943561,7.06275482 28.0734047,6.79387427 28.1905887,6.51857666 C28.4857992,5.85280988 28.6821462,5.14900471 28.7736411,4.42862703 C28.8189328,4.06389886 28.8030885,3.69436544 28.7267351,3.33464913 C28.5968181,2.55700643 27.8949468,1.99693969 27.0917861,2.03002162 C26.7163429,2.0297109 26.3433786,2.08963542 25.9876816,2.20741914 C25.3395636,2.42183529 24.7243256,2.72194584 24.1589949,3.09944494 C24.2396784,3.10697572 24.3201094,3.11604447 24.4002879,3.1266512 C24.9088129,2.80027381 25.4578358,2.53899613 26.0339925,2.34917806 L26.0339925,2.34917806 Z" id="Trazado_1565" fill="#008659" fill-rule="nonzero"></path>
                                <path d="M25.888297,10.1937017 C26.6302736,9.30864817 27.2732523,8.34812299 27.8061971,7.32861245 L27.6273374,7.40651887 C27.1149435,8.37144637 26.5038861,9.28285807 25.803574,10.1267203 C24.890499,11.2466544 23.8189493,12.2330312 22.6213747,13.0559803 C22.2794639,13.2852366 21.9222399,13.4917365 21.5521115,13.6740873 C21.605095,13.6928966 21.6584391,13.7107866 21.7121439,13.7277574 C22.0487068,13.5545763 22.3745335,13.3620467 22.6879196,13.1511756 C23.8929467,12.3197638 24.9706416,11.323881 25.8883511,10.1937017 L25.888297,10.1937017 Z" id="Trazado_1566" fill="#008659" fill-rule="nonzero"></path>
                                <path d="M30.6780158,8.45541817 C30.4982704,8.13140953 30.2658299,7.83830033 29.989844,7.58762874 C29.4424935,7.0932181 28.8259345,6.67794646 28.158831,6.35438451 C27.9207842,6.23463455 27.6773272,6.12522616 27.4325177,6.02053776 L27.3348103,6.0694878 C27.3005099,6.08663535 27.2661193,6.10372986 27.2316386,6.12077133 C27.5196753,6.23786961 27.8047364,6.36292293 28.0828184,6.50054522 C28.7394047,6.81147876 29.3473749,7.21265492 29.8883495,7.69194591 C30.1553866,7.92981579 30.3810984,8.2087507 30.5566119,8.51778573 C30.9499897,9.13630555 30.7990612,9.94662753 30.2080897,10.3889716 C29.9320787,10.6179809 29.6198187,10.8013377 29.2836024,10.9318239 C28.9385084,11.0707013 28.5816352,11.1795913 28.2170984,11.2572383 C28.1869098,11.3057111 28.1567752,11.3537596 28.1251258,11.4012247 C28.5378412,11.3207028 28.9418133,11.2019034 29.3315904,11.0464296 C29.6805891,10.9110075 30.0047125,10.7206803 30.2911897,10.4829472 C30.9239496,10.0001809 31.089802,9.13050786 30.6776912,8.45626671 L30.6780158,8.45541817 Z" id="Trazado_1567" fill="#008659" fill-rule="nonzero"></path>
                                <path d="M16.8200109,8.67158328 C16.5538372,8.43198573 16.329292,8.15145291 16.155211,7.84102347 C15.7655639,7.22170504 15.9198425,6.41353606 16.5115779,5.97423939 C16.7879405,5.74725452 17.1001965,5.56594207 17.4360653,5.4374329 C18.1157858,5.17937994 18.829573,5.01766124 19.5558724,4.95716027 C19.565232,4.9562587 19.5744292,4.95583443 19.5837888,4.95493285 C19.6374575,4.89267136 19.6926952,4.83205391 19.7487985,4.77265624 C19.6784665,4.77902028 19.6081345,4.7828387 19.5378025,4.79042251 C18.796534,4.85873306 18.0690115,5.03043835 17.3772569,5.30034094 C17.0278539,5.43770315 16.70367,5.63005788 16.4174953,5.86981615 C15.7853246,6.35551915 15.6227448,7.22750418 16.0387845,7.90100451 C16.2199363,8.22363593 16.4535466,8.51515114 16.7304187,8.76407395 C17.1833384,9.17343056 17.6873396,9.52488959 18.2303843,9.8100564 C18.2187525,9.75596209 18.2054976,9.70181475 18.1958675,9.64740223 C17.6987054,9.37782744 17.2367162,9.05016405 16.8200109,8.67158328 L16.8200109,8.67158328 Z" id="Trazado_1568" fill="#008659" fill-rule="nonzero"></path>
                                <path d="M27.1605492,11.4229154 C24.2245367,11.6652899 21.2759892,11.1304782 18.622837,9.87433317 C18.4790711,9.80188922 18.3368562,9.72629861 18.1961921,9.64756133 C18.2058222,9.70165564 18.2192394,9.75580299 18.2308712,9.81016247 C18.3414007,9.87035565 18.4526876,9.92916995 18.5650565,9.98549168 C21.2421604,11.2464824 24.2139752,11.7845531 27.1739664,11.5442034 C27.4921917,11.5103679 27.8100924,11.4638044 28.1240978,11.400217 C28.1556391,11.352911 28.1860982,11.3047565 28.2160705,11.2562307 C27.8676622,11.3308327 27.5153232,11.3865495 27.1606574,11.4231276 L27.1605492,11.4229154 Z" id="Trazado_1569" fill="#008659" fill-rule="nonzero"></path>
                                <g id="Grupo_2078" transform="translate(62.183190, 3.043866)" fill-rule="nonzero">
                                    <path d="M1.17903517,6.97275674 C1.25234278,6.82564142 1.34133983,6.73887839 1.48065134,6.83455107 L1.61092788,6.9143667 C2.33832328,7.34987894 3.41104889,7.82368147 4.30009973,7.82368147 C4.6434823,7.82368147 5.06785489,7.64554148 5.06785489,7.24964536 C5.06785489,6.67513196 4.4415212,6.65503221 4.0171486,6.5957406 C2.27962309,6.3581499 0.663176852,5.66436384 0.663176852,3.68419384 C0.663176852,1.05001301 3.37074323,-5.30336386e-05 5.6739546,-5.30336386e-05 C6.89962531,-5.30336386e-05 8.39840067,0.217384885 9.54275674,0.744751387 C9.70911525,0.821686657 9.78330291,1.01405144 9.71047156,1.17962722 L8.75779729,3.35639292 C8.72289192,3.43610897 8.65597126,3.49816908 8.57284079,3.52791572 C8.48971033,3.55766237 8.39774122,3.55245793 8.31865498,3.51353159 C7.63080782,3.17735136 6.89708254,2.93180561 6.15794711,2.93180561 C5.83458212,2.93180561 5.41020952,3.03071335 5.41020952,3.40741128 C5.41020952,3.92231488 5.97621998,3.96193101 6.70323667,4.08093849 C8.56216607,4.37792687 10.0775506,5.01231525 10.0775506,7.13127428 C10.0775506,9.86446892 7.30949869,10.993502 4.88472113,10.993502 C3.26767977,10.993502 1.68731927,10.5261696 0.196064033,9.91649491 C0.0788147261,9.86863751 0.022966719,9.73697323 0.0710353407,9.62173395 C0.354256977,8.93924406 1.17903517,6.97275674 1.17903517,6.97275674 Z" id="Trazado_1570" fill="#6FD3F4"></path>
                                    <g id="Grupo_2077" opacity="0.7" transform="translate(0.441090, 0.018031)" fill="#6F5DB8">
                                        <path d="M8.17214797,9.83068649 C8.16370813,9.8045409 8.15494368,9.77908476 8.14590872,9.75378771 C8.3792981,9.64032031 8.50761399,9.38888214 8.46028642,9.13775681 C8.41295886,8.88663147 8.20146739,8.6967308 7.94212612,8.67249457 C7.68278484,8.64825834 7.43849841,8.79556518 7.34361716,9.03340067 C7.24873591,9.27123616 7.32627382,9.54191199 7.53358732,9.69656442 C7.51849299,9.72170236 7.50507581,9.7468403 7.49138811,9.77282679 C7.05244301,9.71644796 6.62469434,9.59544087 6.22259846,9.41389512 C6.21241006,9.40931001 6.20134787,9.40688822 6.19013753,9.40678861 C6.17402439,9.40071431 6.15631252,9.40004294 6.13976898,9.4048794 C5.71064371,9.52531443 5.26532479,9.58105406 4.81909594,9.57018525 C4.81016919,9.54414574 4.80070141,9.51906083 4.79123364,9.49376378 C5.0221901,9.37601881 5.14549897,9.12242462 5.09336437,8.87240868 C5.04122978,8.62239273 4.82629237,8.43657435 4.56672589,8.41711749 C4.30715941,8.39766062 4.06589883,8.54928281 3.97559051,8.78862136 C3.88528219,9.02795991 3.96782245,9.29698436 4.17783022,9.44778362 C4.16414253,9.47308066 4.15040073,9.49848378 4.13725405,9.52468239 C3.70497201,9.47675388 3.28226936,9.36656554 2.88280132,9.19767698 C2.86782804,9.18530597 2.8487032,9.17882378 2.82913258,9.17948644 C2.382822,9.18577257 1.93813018,9.1255096 1.51029899,9.00076308 C1.50862184,8.97339772 1.50624137,8.94682787 1.5038068,8.91988678 C1.75822058,8.86541391 1.94493756,8.65216538 1.96128998,8.39739754 C1.9776424,8.14262969 1.81966493,7.90812157 1.5742227,7.82281926 C1.32878048,7.73751694 1.05539114,7.82210553 0.904379919,8.03007332 C0.753368699,8.23804112 0.761354531,8.51895771 0.923946343,8.71835895 C0.904036971,8.73957241 0.883965295,8.76036159 0.86362311,8.78199932 C0.607044889,8.68048935 0.359800234,8.55763941 0.124595879,8.4147944 C0.0826671749,8.51502798 0.040900775,8.61494336 0.000162304663,8.71300255 C0.166908627,8.88731173 0.355638628,9.04007733 0.561790539,9.1676069 C0.376522991,9.44082203 0.210235346,9.72595724 0.0640562402,10.0210772 C0.489186253,10.1873907 0.921133062,10.3402337 1.35876053,10.4730299 C1.43010747,10.1482053 1.47891073,9.8190134 1.50483473,9.48771795 C1.94846748,9.54907787 2.55056367,9.42667623 2.80365074,9.36722552 C3.14952962,9.62812369 3.53597286,9.8327788 3.94816912,9.97334698 C3.84039705,10.289494 3.75473605,10.6124751 3.69178186,10.9400441 C3.94124412,10.9612576 4.19157202,10.9738796 4.44314424,10.9738796 C4.64672839,10.9738796 4.85323402,10.9651821 5.05990196,10.9489008 C5.04096459,10.6440538 5.00207572,10.3407136 4.94347542,10.0407527 C5.38710816,9.98649932 5.93429128,9.71549742 6.16341136,9.59267152 C6.50353733,9.85912148 6.88512771,10.07027 7.29359283,10.2180442 C7.26583873,10.2919731 7.2401946,10.3682354 7.21530788,10.4451342 C7.5976485,10.2869532 7.95755059,10.0810356 8.28608584,9.83248963 C8.24556378,9.8329139 8.20682707,9.83201233 8.17214797,9.83068649 Z" id="Trazado_1571"></path>
                                        <path d="M3.38551296,6.54965437 C3.44863144,6.55951862 3.51193026,6.5688879 3.57540941,6.5777622 C3.71807521,6.59786195 3.88324726,6.61366597 4.04008766,6.64739536 C4.04207354,6.28057941 4.01686799,5.91410678 3.9646701,5.55087185 C4.4101964,5.51698336 4.97014748,5.27133154 5.20484002,5.15953663 C5.53182846,5.44132798 5.90287833,5.66979132 6.3038049,5.83619283 C6.01683207,6.57381926 5.816325,7.34103208 5.70614503,8.12305636 C5.70142152,8.15493082 5.7099308,8.18733109 5.72976878,8.21300711 C5.74960677,8.23868314 5.77911737,8.25549148 5.81169716,8.25967101 L5.97053932,8.28051323 C6.03369982,8.28817738 6.09246143,8.24754165 6.10628012,8.18664369 C6.2176148,7.75960031 6.38300683,7.34788594 6.59860426,6.96108934 C6.60998089,6.94012689 6.63351749,6.92837765 6.65750345,6.93168743 C6.68148942,6.93499722 6.70080252,6.95265921 6.70583355,6.97588572 C6.80550198,7.40573677 6.85451406,7.84538074 6.85190774,8.28618783 C6.84975661,8.34776879 6.89528766,8.40104403 6.95751398,8.40975621 L7.11814149,8.43096966 C7.15069874,8.43529343 7.18366632,8.42665501 7.2096805,8.40698391 C7.23569467,8.38731282 7.25258808,8.35824792 7.25658737,8.32628126 C7.35940391,7.54388226 7.37118346,6.7525638 7.29169928,5.96755715 C7.73884862,5.94183584 8.30469678,5.70530581 8.54057955,5.59796572 C8.82346219,5.72889685 9.11804484,5.83401148 9.42059543,5.9119779 C9.36406177,5.76857601 9.29339524,5.63092084 9.20959937,5.5009672 C8.99927945,5.48958903 8.79028757,5.46110036 8.58478052,5.41579517 C8.56768074,5.40654144 8.54766811,5.40389297 8.52867721,5.40837046 C8.09243197,5.50093983 7.6443655,5.5279598 7.19983484,5.48850429 C7.19274753,5.46198747 7.1847405,5.43631919 7.17722039,5.41059788 C7.41576395,5.30795936 7.55593821,5.06268861 7.52065418,4.80967252 C7.48537015,4.55665643 7.28318577,4.35726264 7.02529256,4.32114798 C6.76739935,4.28503332 6.51634785,4.42095719 6.41020411,4.65416812 C6.30406037,4.88737905 6.36856895,5.16131303 6.56825329,5.32531979 C6.55315896,5.34955616 6.53806463,5.37411073 6.52302439,5.39924868 C6.08725791,5.32264476 5.66577212,5.18204422 5.27279158,4.98219215 C5.26295694,4.97706499 5.25210189,4.97409716 5.24097986,4.97349463 C5.22515913,4.96677654 5.20754245,4.96526923 5.19077362,4.9691989 C4.75633854,5.06972567 4.30883624,5.1049179 3.86360839,5.0735691 C3.85608828,5.04705229 3.84851406,5.02164917 3.83964141,4.99598089 C4.07591967,4.88888446 4.21111327,4.64119319 4.17089659,4.38908073 C4.13067991,4.13696827 3.92480319,3.94155745 3.66645162,3.91027958 C3.40810004,3.87900172 3.15990907,4.01943992 3.05832707,4.25438523 C2.95674506,4.48933054 3.02639983,4.7618222 3.22899716,4.922052 C3.21390283,4.94676567 3.1988085,4.97126722 3.18479619,4.99688246 C2.75528621,4.9291032 2.3383269,4.79957945 1.94738544,4.61249465 C1.93306102,4.59944156 1.91430054,4.59207038 1.89474463,4.59181153 C1.44863786,4.57761114 1.0073315,4.4969611 0.585973934,4.35262982 C0.585973934,4.32510536 0.58445909,4.29837641 0.583377059,4.27148835 C0.805373734,4.23479087 0.985947372,4.07602279 1.04721259,3.86366429 C1.1084778,3.65130578 1.03947381,3.42334929 0.869963549,3.27811748 C0.70045329,3.13288568 0.460763361,3.09636155 0.254277305,3.18429876 C0.232835072,3.34387788 0.222207869,3.50467484 0.222465591,3.66563207 C0.211563915,4.12547041 0.320238892,4.58046248 0.538256363,4.98776068 C0.545505971,4.93806816 0.55243097,4.88811047 0.558165735,4.83889525 C0.998065472,4.92051402 1.60573413,4.82600808 1.86103936,4.77843691 C2.19401955,5.05512048 2.57023145,5.27750218 2.97526087,5.43706166 C2.85110668,5.75157463 2.74912004,6.07406985 2.6700199,6.40227389 C2.8787437,6.45626213 3.09336457,6.50043915 3.31128563,6.53682023 C3.33561915,6.52128838 3.36806871,6.52689901 3.38551296,6.54965437 Z" id="Trazado_1572"></path>
                                        <path d="M1.88825245,2.85145965 C1.8841239,2.88343265 1.89325152,2.91569285 1.91359063,2.94101364 C1.93392973,2.96633442 1.96378032,2.98259942 1.99645555,2.98616509 L2.15540592,3.00403743 C2.21889992,3.01088487 2.27724519,2.96914528 2.28995649,2.90778137 C2.3931411,2.47877506 2.55070135,2.06411675 2.75896286,1.67347647 C2.77002362,1.65242717 2.79327426,1.64034343 2.81725458,1.64318129 C2.84123491,1.64601915 2.86088395,1.6631797 2.86651675,1.68620454 C2.97418647,2.11421093 3.031457,2.55290417 3.03720715,2.99369587 C3.03646,3.05548389 3.08335766,3.10788276 3.14595128,3.11519593 L3.3070116,3.13338647 C3.33954559,3.13699496 3.3722003,3.12769636 3.39769863,3.10756288 C3.42319695,3.08742939 3.43941998,3.05813411 3.4427524,3.02620549 C3.53070799,2.24209752 3.52756803,1.45073583 3.43339283,0.667322275 C3.87886503,0.633645914 4.43887022,0.387781965 4.67350866,0.275987055 C5.00049654,0.557779141 5.37154653,0.786242562 5.77247353,0.95264325 C5.5098176,1.61843417 5.32142163,2.31012908 5.21057479,3.01565179 C5.36084837,2.94674701 5.52499572,2.91182155 5.69088839,2.91345597 C5.79434004,2.62570177 5.9203957,2.34624326 6.06792212,2.07759279 C6.07941724,2.05679662 6.10288498,2.04519217 6.12677847,2.04848919 C6.15067196,2.05178621 6.16995965,2.06929042 6.1751514,2.09238918 C6.23989321,2.37953211 6.28423668,2.67073168 6.30786251,2.96389096 C6.46266202,2.98962916 6.61595104,3.02344193 6.7670765,3.06518521 C6.83501871,2.4064321 6.83320566,1.74255376 6.76166635,1.08416667 C7.20865339,1.05844536 7.77466385,0.821915331 8.01054663,0.714575247 C8.40221557,0.903594878 8.82236702,1.02958762 9.25488237,1.08771993 C9.24822788,1.1354502 9.24281773,1.18381688 9.23767808,1.23228963 L9.26857007,1.16133062 C9.34143184,0.995755514 9.2672361,0.803369812 9.10085525,0.726454782 C9.02121776,0.689755504 8.93600781,0.658147455 8.85307013,0.624311994 C8.58416086,0.620492906 8.31634728,0.589840449 8.05377377,0.532828967 C8.03658864,0.523651308 8.01654883,0.521025779 7.99750815,0.525457291 C7.56142846,0.618033986 7.11351852,0.645036536 6.66915269,0.605538086 C6.66206539,0.579021266 6.65405836,0.553512086 6.64653824,0.52763167 C6.81870224,0.453858796 6.94387478,0.30306465 6.98256299,0.122825907 C6.6005053,0.0623694387 6.21550676,0.0213724343 5.82911786,9.04384e-15 C5.82778164,0.170574439 5.90420275,0.332826787 6.03751705,0.442459647 C6.02242271,0.46669602 6.00732838,0.491250594 5.99228815,0.516388539 C5.55649223,0.439896383 5.13498965,0.299290247 4.74205533,0.0993320051 C4.73208741,0.0942629875 4.72113207,0.0913341444 4.70991901,0.0907405557 C4.69414073,0.0838597321 4.67646854,0.082347672 4.65971276,0.0864448309 C4.26086995,0.179751377 3.85048482,0.216788624 3.44096705,0.196436597 C3.0902046,0.281980459 2.74807346,0.398512432 2.41877229,0.544602435 C2.42721213,0.547413218 2.43570607,0.551390741 2.44414592,0.554042423 C2.17071529,1.29673184 1.98431059,2.06748719 1.88852295,2.85145965 L1.88825245,2.85145965 Z" id="Trazado_1573"></path>
                                    </g>
                                </g>
                                <g id="Grupo_2080" transform="translate(31.441713, 3.247356)" fill-rule="nonzero">
                                    <g id="Grupo_2079" transform="translate(0.000433, 0.000000)" fill="#FFB500">
                                        <path d="M3.9786283,10.585143 L0.19319665,10.585143 C0.0865604383,10.5851431 -1.45090484e-06,10.5004503 -1.45090484e-06,10.395919 L-1.45090484e-06,0.497667665 C-0.000201225264,0.446048207 0.0205357403,0.396466909 0.0576444175,0.359842048 C0.0947530946,0.323217188 0.145190339,0.302552234 0.197849384,0.302397807 C0.754500275,0.300912865 2.49429806,0.296351973 3.21309131,0.289245465 C3.51806177,0.286275581 3.64309046,0.363174357 3.648176,0.680580684 C3.66259765,1.11750471 3.70135603,1.55333032 3.76427794,1.98610977 C3.78207735,2.12431543 3.81421367,2.38529396 3.9265826,2.38736228 C4.03895153,2.38943059 4.10030269,2.16249965 4.14737105,2.03564318 C4.44408146,1.28646866 5.02268816,0.677427577 5.76392549,0.33405889 C7.49825901,-0.508645628 9.13445231,0.298579385 9.60773271,2.13248261 C9.63153739,2.22518541 9.65058114,2.38778654 9.770903,2.38778654 C9.89122485,2.38778654 9.9414852,2.22030631 9.97481176,2.11991364 C10.3015833,1.13906626 11.1176315,0.39033178 12.1376296,0.135500947 C13.7060877,-0.293222988 15.0645237,0.488227677 15.5659369,2.01511917 C15.747349,2.54774364 15.8481474,3.10355587 15.8651185,3.66483656 C15.8987696,5.88874916 15.8802128,7.51364682 15.8802128,9.73814279 C15.8802128,9.79117643 15.8753978,10.1602375 15.8704204,10.3957599 C15.8681241,10.4986205 15.782343,10.5807994 15.6773861,10.5806882 L12.0537722,10.5806882 C12.002603,10.5808433 11.9534776,10.5610154 11.9172547,10.5255872 C11.8810319,10.4901589 11.8606944,10.4420479 11.8607378,10.3918885 C11.8614953,9.7395747 11.8642003,7.55771777 11.8655529,6.40800152 C11.8663103,5.72026129 11.9107818,5.19485704 11.7325172,4.62654856 C11.6341605,4.31211212 11.2830955,4.16192086 10.9570255,4.16176176 C10.6309554,4.16160265 10.2578711,4.31879436 10.140092,4.65598223 C10.0522191,5.012685 10.012422,5.37913979 10.0217178,5.74598261 C10.0048381,7.28348083 10.015983,8.41102902 10.0153879,9.94826206 C10.0153879,10.0162512 10.0102483,10.2262114 10.0045676,10.3925249 C10.0010625,10.4944056 9.91568672,10.5751617 9.81169557,10.5749606 L6.16297855,10.5749606 C6.1118257,10.5750028 6.06275083,10.555124 6.02654986,10.5196973 C5.9903489,10.4842705 5.96998723,10.4361979 5.9699442,10.3860548 L5.9699442,9.88886439 C5.97145905,8.33922147 5.98108912,7.2445011 5.96723913,5.69501728 C5.9744535,5.33216481 5.9235751,4.9704478 5.8164581,4.62304834 C5.68134919,4.3368588 5.38763613,4.15489384 5.06595301,4.15808562 C4.74426989,4.16127739 4.45437446,4.34903297 4.32520285,4.63784473 C4.22372974,4.98987487 4.17435404,5.35436525 4.17858764,5.72015523 C4.16473764,7.30718686 4.17133803,8.77653685 4.17182495,10.3945932 C4.17204061,10.4450269 4.15180536,10.4934782 4.11557232,10.5292844 C4.07933928,10.5650907 4.03007765,10.5853178 3.9786283,10.5855143 L3.9786283,10.585143 Z" id="Trazado_1574"></path>
                                    </g>
                                    <path d="M1.44781169,0.455824124 L0.00871035023,0.455824124 C0.00420730319,0.469400342 0.00132075232,0.483441431 0.000108203108,0.497667665 L0.000108203108,0.581460814 L1.44840681,0.581460814 L1.44781169,0.455824124 Z" id="Trazado_1575" fill="#FFFFFF" opacity="0.5"></path>
                                    <rect id="Rectángulo_859" fill="#FFFFFF" opacity="0.5" x="0.000432812434" y="0.859993484" width="1.44737888" height="1"></rect>
                                    <rect id="Rectángulo_860" fill="#FFFFFF" opacity="0.5" x="0.000432812434" y="1.26405678" width="1.44737888" height="1"></rect>
                                    <rect id="Rectángulo_861" fill="#FFFFFF" opacity="0.5" x="0.000432812434" y="1.66806704" width="1.44737888" height="1"></rect>
                                    <rect id="Rectángulo_862" fill="#FFFFFF" opacity="0.5" x="0.000432812434" y="2.07228943" width="2.07701277" height="1"></rect>
                                    <rect id="Rectángulo_863" fill="#FFFFFF" opacity="0.5" x="0.000432812434" y="2.62134669" width="1.44737888" height="1"></rect>
                                    <rect id="Rectángulo_864" fill="#FFFFFF" opacity="0.5" x="0.000432812434" y="3.02551605" width="1.44737888" height="1"></rect>
                                    <rect id="Rectángulo_865" fill="#FFFFFF" opacity="0.5" x="0.000432812434" y="3.42957934" width="1.44737888" height="1"></rect>
                                    <rect id="Rectángulo_866" fill="#FFFFFF" opacity="0.5" x="0.000432812434" y="3.8335896" width="1.44737888" height="1"></rect>
                                    <rect id="Rectángulo_867" fill="#FFFFFF" opacity="0.5" x="0.000432812434" y="4.23781199" width="2.07701277" height="1"></rect>
                                    <rect id="Rectángulo_868" fill="#FFFFFF" opacity="0.5" x="0.000432812434" y="4.78686925" width="1.44737888" height="1"></rect>
                                    <rect id="Rectángulo_869" fill="#FFFFFF" opacity="0.5" x="0.000432812434" y="5.19087951" width="1.44737888" height="1"></rect>
                                    <rect id="Rectángulo_870" fill="#FFFFFF" opacity="0.5" x="0.000432812434" y="5.59510191" width="1.44737888" height="1"></rect>
                                    <rect id="Rectángulo_871" fill="#FFFFFF" opacity="0.5" x="0.000432812434" y="5.99911217" width="1.44737888" height="1"></rect>
                                    <rect id="Rectángulo_872" fill="#FFFFFF" opacity="0.5" x="0.000432812434" y="6.40317546" width="2.07701277" height="1"></rect>
                                    <rect id="Rectángulo_873" fill="#FFFFFF" opacity="0.5" x="0.000432812434" y="6.95239182" width="1.44737888" height="1"></rect>
                                    <rect id="Rectángulo_874" fill="#FFFFFF" opacity="0.5" x="0.000432812434" y="7.35640208" width="1.44737888" height="1"></rect>
                                    <rect id="Rectángulo_875" fill="#FFFFFF" opacity="0.5" x="0.000432812434" y="7.76062447" width="1.44737888" height="1"></rect>
                                    <rect id="Rectángulo_876" fill="#FFFFFF" opacity="0.5" x="0.000432812434" y="8.16463473" width="1.44737888" height="1"></rect>
                                    <rect id="Rectángulo_877" fill="#FFFFFF" opacity="0.5" x="0.000432812434" y="8.56869802" width="2.07701277" height="1"></rect>
                                    <rect id="Rectángulo_878" fill="#FFFFFF" opacity="0.5" x="0.000432812434" y="9.11791438" width="1.44737888" height="1"></rect>
                                    <rect id="Rectángulo_879" fill="#FFFFFF" opacity="0.5" x="0.000432812434" y="9.52192464" width="1.44737888" height="1"></rect>
                                    <rect id="Rectángulo_880" fill="#FFFFFF" opacity="0.5" x="0.000432812434" y="9.92598794" width="1.44737888" height="1"></rect>
                                    <path d="M1.44781169,10.3301573 L0,10.3301573 L0,10.395919 C0.000769235947,10.4161654 0.00495569273,10.4361469 0.0123892559,10.4550515 L1.44737888,10.4550515 L1.44781169,10.3301573 Z" id="Trazado_1576" fill="#FFFFFF" opacity="0.5"></path>
                                    <rect id="Rectángulo_881" fill="#FFFFFF" opacity="0.5" x="6.54699138" y="9.53465272" width="1.134726" height="1"></rect>
                                    <path d="M8.59127271,8.22127466 C8.52851491,8.50834574 8.26882745,8.71385109 7.89195602,8.72201827 L7.89195602,9.00495273 L8.54874889,9.00495273 L8.54874889,10.575703 L8.95083164,10.575703 L8.95083164,8.22100949 L8.59127271,8.22127466 Z" id="Trazado_1577" fill="#FFFFFF" opacity="0.5"></path>
                                    <path d="M6.72206401,7.1342972 L7.2298612,7.1342972 L7.2298612,5.93785831 L8.39428895,5.93785831 L8.39428895,5.45827512 L7.2298612,5.45827512 L7.2298612,4.27398094 L6.72206401,4.27398094 L6.72206401,5.45816905 L5.96090924,5.45816905 C5.96512917,5.5421213 5.96723913,5.62257333 5.96783424,5.69469908 C5.96859167,5.77690122 5.96934909,5.85730022 5.9697819,5.93727494 L6.7217935,5.93727494 L6.72206401,7.1342972 Z" id="Trazado_1578" fill="#FFFFFF" opacity="0.5"></path>
                                    <path d="M7.40466332,1.15417108 C7.04212899,1.16187082 6.753944,1.45503722 6.75952916,1.81045669 C6.76511431,2.16587616 7.06237416,2.45020234 7.42497842,2.44695248 C7.78758269,2.44370262 8.07948939,2.15409601 8.07844688,1.79863585 C8.07342611,1.43849794 7.77206566,1.15024959 7.40466332,1.15417108 L7.40466332,1.15417108 Z M7.40466332,2.12267139 C7.27083997,2.12664514 7.14792476,2.05067499 7.09389449,1.93059461 C7.03986422,1.81051424 7.065512,1.67031095 7.15874026,1.57611601 C7.25196851,1.48192107 7.39415393,1.45255089 7.51823031,1.50185884 C7.64230669,1.55116679 7.72348381,1.66930309 7.72348381,1.80054506 C7.72356271,1.97476828 7.58231588,2.1174797 7.40466332,2.12267139 Z" id="Trazado_1579" fill="#FFFFFF" opacity="0.5"></path>
                                    <path d="M5.79763075,2.41462157 L7.53575139,0.0344718651 C7.41923553,0.014646461 7.30139233,0.00323123906 7.18317156,0.000318201832 L5.41242769,2.41387909 L5.79763075,2.41462157 Z" id="Trazado_1580" fill="#FFFFFF" opacity="0.5"></path>
                                    <path d="M5.74661299,1.0189353 C6.11469423,1.02065847 6.41544928,0.731330331 6.42061015,0.370546033 C6.42039319,0.279710932 6.399799,0.190034168 6.36028692,0.107870421 C6.24877475,0.138934456 6.13898142,0.175647703 6.03134947,0.217862187 C6.05600578,0.265092313 6.06887395,0.317384763 6.06889595,0.370439966 C6.0732667,0.521377034 5.96801286,0.654223979 5.81774558,0.687431341 C5.6674783,0.720638704 5.51425703,0.644911822 5.45213823,0.506736417 C5.35550034,0.566085649 5.26201735,0.630233821 5.17205448,0.698930323 C5.29325916,0.89667718 5.51100416,1.01802924 5.74634248,1.01898833 L5.74661299,1.0189353 Z" id="Trazado_1581" fill="#FFFFFF" opacity="0.5"></path>
                                    <path d="M12.7681832,4.97402496 L13.357295,4.97402496 C13.2064599,4.77488365 12.585861,3.92189061 12.4347553,3.7227493 L13.3257538,2.51745379 L12.7474082,2.51745379 L12.1429315,3.38052323 L11.5282297,2.51745379 L10.9341946,2.51745379 L11.8355265,3.72269626 L11.4246793,4.27382183 C11.5704026,4.34645736 11.6808514,4.47270713 11.7318679,4.62495756 L12.1220483,4.06996053 L12.7681832,4.97402496 Z" id="Trazado_1582" fill="#FFFFFF" opacity="0.5"></path>
                                    <path d="M13.7131751,2.12399723 L15.328377,2.12399723 L14.3329084,3.02302347 L14.5829657,3.43695102 C14.6784257,3.4041199 14.7787671,3.38698876 14.8799292,3.38625086 C15.213357,3.38625086 15.567614,3.57001242 15.567614,4.00419882 C15.567614,4.33608333 15.3175566,4.61684341 14.8537981,4.61684341 C14.6567652,4.62247891 14.4658017,4.54966125 14.3244457,4.41499221 C14.1830896,4.28032317 14.10339,4.09528187 14.1035178,3.90205603 L13.603403,4.01427521 C13.6346196,4.55580169 14.0774408,5.0562271 14.8591001,5.0562271 C15.2520875,5.07684309 15.6310893,4.91037561 15.8769667,4.60915353 C15.8740993,4.30474045 15.8703122,3.99194805 15.8653349,3.66515476 C15.8636577,3.555163 15.8565704,3.44426966 15.8466157,3.33353542 C15.6409678,3.11085812 15.347992,2.9850183 15.0415846,2.9877561 L15.6817683,2.40719686 C15.646999,2.27471883 15.6084427,2.14413233 15.5660992,2.01543737 C15.5262267,1.89624056 15.4799596,1.77919138 15.427491,1.66477895 L13.7131751,1.66477895 L13.7131751,2.12399723 Z" id="Trazado_1583" fill="#FFFFFF" opacity="0.5"></path>
                                    <path d="M13.1274716,8.35666954 C12.8982522,8.00776249 12.4984992,7.80300514 12.0754128,7.81779473 C12.0047833,7.81814946 11.9342706,7.82346645 11.8644167,7.83370483 L11.8644167,8.29610512 C11.9332408,8.27800434 12.0041556,8.26866436 12.0754128,8.26831549 C12.2805479,8.26015424 12.4792134,8.33959188 12.619999,8.48607161 C12.8263424,8.69820617 12.9216152,9.06132749 12.9216152,9.57442795 C12.9216152,10.0268049 12.8473879,10.3618184 12.6885998,10.5804761 L13.2466032,10.5804761 C13.3814936,10.2620243 13.4457096,9.91908023 13.4349849,9.57442795 C13.4574918,9.14760548 13.3504838,8.72381512 13.1274716,8.35656347 L13.1274716,8.35666954 Z" id="Trazado_1584" fill="#FFFFFF" opacity="0.5"></path>
                                    <path d="M15.3209109,8.53762031 C15.3767288,8.37536415 15.4955645,8.24122819 15.6516337,8.16431653 L15.882972,8.01900436 C15.882972,7.8722426 15.8833687,7.7267183 15.8841622,7.58243145 L15.4590322,7.85221357 C14.9983034,8.14358038 14.8227438,8.47620736 14.814304,8.91129533 L15.8806997,8.91129533 C15.8806997,8.78514598 15.8809522,8.660623 15.8814571,8.53772638 L15.3209109,8.53762031 Z" id="Trazado_1585" fill="#FFFFFF" opacity="0.5"></path>
                                    <path d="M14.8435729,7.05188293 C14.8429672,7.08746462 14.844376,7.12305186 14.8477928,7.15848054 L15.2579908,7.20769576 C15.2537709,7.16643558 15.2497133,7.12581182 15.2497133,7.08943074 C15.2497133,6.78565406 15.4174281,6.54360853 15.7730376,6.54360853 C15.8107491,6.54371519 15.8483872,6.54687257 15.8855689,6.55304852 L15.8855689,6.19910202 C15.8510521,6.19629123 15.8183206,6.19051023 15.7816398,6.19051023 C15.1867932,6.1900863 14.8435729,6.5960588 14.8435729,7.05188293 Z" id="Trazado_1586" fill="#FFFFFF" opacity="0.5"></path>
                                    <path d="M3.23197275,6.94247453 C3.23315458,7.22062225 3.40979323,7.46903196 3.67560549,7.56636225 C3.37516818,7.65032772 3.16606582,7.91698883 3.1605587,8.22318387 C3.1605587,8.64999859 3.52071274,8.98644399 4.14444956,8.98644399 C4.15364683,8.98644399 4.16149155,8.98469388 4.17068882,8.98453478 L4.17068882,8.63562647 C4.16165386,8.63562647 4.15380913,8.63742962 4.14477417,8.63742962 C3.78056251,8.63742962 3.57546352,8.44067482 3.57546352,8.19019694 C3.57546352,7.93563548 3.78478243,7.73442585 4.14477417,7.73442585 C4.15380913,7.73442585 4.16165386,7.7360699 4.17058061,7.73633507 L4.17058061,7.39559394 C4.16170796,7.39559394 4.15353862,7.39782135 4.14450366,7.39792742 C3.85570957,7.39394989 3.64211663,7.22143147 3.64211663,6.96305158 C3.64211663,6.72487751 3.83818066,6.53597169 4.14450366,6.53597169 C4.15462065,6.53597169 4.16365561,6.5378809 4.17344799,6.5383582 C4.17344799,6.42758861 4.17404311,6.31646546 4.17523335,6.20498875 C4.16495405,6.20498875 4.15489116,6.20392808 4.14504468,6.20392808 C3.62545335,6.20387504 3.23197275,6.50722746 3.23197275,6.94247453 Z" id="Trazado_1587" fill="#FFFFFF" opacity="0.5"></path>
                                </g>
                            </g>
                        </g>
                    </g>
                </g>
            </g>
        </g>
    </g>
</svg>